<mxfile host="app.diagrams.net" modified="2023-10-30T17:49:24.198Z" agent="Mozilla/5.0 (Windows NT 10.0; Win64; x64) AppleWebKit/537.36 (KHTML, like Gecko) Chrome/118.0.0.0 Safari/537.36" etag="jiU73kXkdUfq7qrhUfAm" version="22.0.8" type="github">
  <diagram name="Page-1" id="AMBfoUOXNeLaY5N65fJ1">
    <mxGraphModel dx="1075" dy="472" grid="1" gridSize="10" guides="1" tooltips="1" connect="1" arrows="1" fold="1" page="1" pageScale="1" pageWidth="827" pageHeight="1169" math="0" shadow="0">
      <root>
        <mxCell id="0" />
        <mxCell id="1" parent="0" />
        <mxCell id="PtxPuc-Sb4we9bxzt_w5-1" value="GeniuX" style="rounded=0;whiteSpace=wrap;html=1;" vertex="1" parent="1">
          <mxGeometry x="350" y="30" width="100" height="30" as="geometry" />
        </mxCell>
        <mxCell id="PtxPuc-Sb4we9bxzt_w5-3" value="4.Transition" style="rounded=0;whiteSpace=wrap;html=1;" vertex="1" parent="1">
          <mxGeometry x="710" y="200" width="100" height="30" as="geometry" />
        </mxCell>
        <mxCell id="PtxPuc-Sb4we9bxzt_w5-4" value="3.Construction" style="rounded=0;whiteSpace=wrap;html=1;" vertex="1" parent="1">
          <mxGeometry x="500" y="200" width="100" height="30" as="geometry" />
        </mxCell>
        <mxCell id="PtxPuc-Sb4we9bxzt_w5-5" value="2.Elaboration" style="rounded=0;whiteSpace=wrap;html=1;" vertex="1" parent="1">
          <mxGeometry x="300" y="200" width="100" height="30" as="geometry" />
        </mxCell>
        <mxCell id="PtxPuc-Sb4we9bxzt_w5-6" value="1.Inception" style="rounded=0;whiteSpace=wrap;html=1;" vertex="1" parent="1">
          <mxGeometry x="30" y="200" width="100" height="30" as="geometry" />
        </mxCell>
        <mxCell id="PtxPuc-Sb4we9bxzt_w5-8" style="edgeStyle=orthogonalEdgeStyle;rounded=0;orthogonalLoop=1;jettySize=auto;html=1;exitX=0.75;exitY=0;exitDx=0;exitDy=0;entryX=0.608;entryY=0.067;entryDx=0;entryDy=0;entryPerimeter=0;" edge="1" parent="1" source="PtxPuc-Sb4we9bxzt_w5-3" target="PtxPuc-Sb4we9bxzt_w5-6">
          <mxGeometry relative="1" as="geometry">
            <Array as="points">
              <mxPoint x="785" y="140" />
              <mxPoint x="91" y="140" />
            </Array>
          </mxGeometry>
        </mxCell>
        <mxCell id="PtxPuc-Sb4we9bxzt_w5-9" value="" style="endArrow=classic;html=1;rounded=0;" edge="1" parent="1" target="PtxPuc-Sb4we9bxzt_w5-4">
          <mxGeometry width="50" height="50" relative="1" as="geometry">
            <mxPoint x="550" y="140" as="sourcePoint" />
            <mxPoint x="610" y="220" as="targetPoint" />
          </mxGeometry>
        </mxCell>
        <mxCell id="PtxPuc-Sb4we9bxzt_w5-10" value="" style="endArrow=classic;html=1;rounded=0;" edge="1" parent="1">
          <mxGeometry width="50" height="50" relative="1" as="geometry">
            <mxPoint x="350" y="140" as="sourcePoint" />
            <mxPoint x="350" y="200" as="targetPoint" />
          </mxGeometry>
        </mxCell>
        <mxCell id="PtxPuc-Sb4we9bxzt_w5-11" value="" style="endArrow=classic;html=1;rounded=0;" edge="1" parent="1">
          <mxGeometry width="50" height="50" relative="1" as="geometry">
            <mxPoint x="399" y="60" as="sourcePoint" />
            <mxPoint x="399" y="140" as="targetPoint" />
          </mxGeometry>
        </mxCell>
        <mxCell id="PtxPuc-Sb4we9bxzt_w5-12" value="1.1.Feasibility study" style="rounded=0;whiteSpace=wrap;html=1;" vertex="1" parent="1">
          <mxGeometry x="30" y="290" width="100" height="30" as="geometry" />
        </mxCell>
        <mxCell id="PtxPuc-Sb4we9bxzt_w5-13" value="1.2.Requirement Gathering" style="rounded=0;whiteSpace=wrap;html=1;" vertex="1" parent="1">
          <mxGeometry x="30" y="400" width="110" height="30" as="geometry" />
        </mxCell>
        <mxCell id="PtxPuc-Sb4we9bxzt_w5-15" value="1.3.scope analysis" style="rounded=0;whiteSpace=wrap;html=1;" vertex="1" parent="1">
          <mxGeometry x="30" y="500" width="110" height="30" as="geometry" />
        </mxCell>
        <mxCell id="PtxPuc-Sb4we9bxzt_w5-19" value="" style="endArrow=classic;html=1;rounded=0;entryX=0.608;entryY=0.053;entryDx=0;entryDy=0;exitX=0.592;exitY=1;exitDx=0;exitDy=0;exitPerimeter=0;entryPerimeter=0;" edge="1" parent="1" source="PtxPuc-Sb4we9bxzt_w5-6" target="PtxPuc-Sb4we9bxzt_w5-12">
          <mxGeometry width="50" height="50" relative="1" as="geometry">
            <mxPoint x="560" y="350" as="sourcePoint" />
            <mxPoint x="610" y="300" as="targetPoint" />
          </mxGeometry>
        </mxCell>
        <mxCell id="PtxPuc-Sb4we9bxzt_w5-20" value="" style="endArrow=classic;html=1;rounded=0;entryX=0.567;entryY=-0.12;entryDx=0;entryDy=0;exitX=0.592;exitY=1;exitDx=0;exitDy=0;exitPerimeter=0;entryPerimeter=0;" edge="1" parent="1" target="PtxPuc-Sb4we9bxzt_w5-13">
          <mxGeometry width="50" height="50" relative="1" as="geometry">
            <mxPoint x="90" y="320" as="sourcePoint" />
            <mxPoint x="92" y="382" as="targetPoint" />
          </mxGeometry>
        </mxCell>
        <mxCell id="PtxPuc-Sb4we9bxzt_w5-21" value="" style="endArrow=classic;html=1;rounded=0;entryX=0.567;entryY=-0.12;entryDx=0;entryDy=0;exitX=0.592;exitY=1;exitDx=0;exitDy=0;exitPerimeter=0;entryPerimeter=0;" edge="1" parent="1">
          <mxGeometry width="50" height="50" relative="1" as="geometry">
            <mxPoint x="90" y="424" as="sourcePoint" />
            <mxPoint x="92" y="500" as="targetPoint" />
          </mxGeometry>
        </mxCell>
        <mxCell id="PtxPuc-Sb4we9bxzt_w5-23" value="2.1.Detailed scope analysis" style="rounded=0;whiteSpace=wrap;html=1;" vertex="1" parent="1">
          <mxGeometry x="300" y="290" width="100" height="30" as="geometry" />
        </mxCell>
        <mxCell id="PtxPuc-Sb4we9bxzt_w5-24" value="2.2.Risk Management" style="rounded=0;whiteSpace=wrap;html=1;" vertex="1" parent="1">
          <mxGeometry x="300" y="400" width="100" height="30" as="geometry" />
        </mxCell>
        <mxCell id="PtxPuc-Sb4we9bxzt_w5-25" value="2.3. project Designing" style="rounded=0;whiteSpace=wrap;html=1;" vertex="1" parent="1">
          <mxGeometry x="300" y="500" width="100" height="30" as="geometry" />
        </mxCell>
        <mxCell id="PtxPuc-Sb4we9bxzt_w5-26" value="3.1.Development" style="rounded=0;whiteSpace=wrap;html=1;" vertex="1" parent="1">
          <mxGeometry x="500" y="280" width="100" height="30" as="geometry" />
        </mxCell>
        <mxCell id="PtxPuc-Sb4we9bxzt_w5-27" value="3.3.Testing" style="rounded=0;whiteSpace=wrap;html=1;" vertex="1" parent="1">
          <mxGeometry x="500" y="500" width="100" height="30" as="geometry" />
        </mxCell>
        <mxCell id="PtxPuc-Sb4we9bxzt_w5-28" value="3.2.quality assurance" style="rounded=0;whiteSpace=wrap;html=1;" vertex="1" parent="1">
          <mxGeometry x="500" y="400" width="100" height="30" as="geometry" />
        </mxCell>
        <mxCell id="PtxPuc-Sb4we9bxzt_w5-29" style="edgeStyle=orthogonalEdgeStyle;rounded=0;orthogonalLoop=1;jettySize=auto;html=1;exitX=0.5;exitY=1;exitDx=0;exitDy=0;" edge="1" parent="1" source="PtxPuc-Sb4we9bxzt_w5-28" target="PtxPuc-Sb4we9bxzt_w5-28">
          <mxGeometry relative="1" as="geometry" />
        </mxCell>
        <mxCell id="PtxPuc-Sb4we9bxzt_w5-30" value="" style="endArrow=classic;html=1;rounded=0;entryX=0.5;entryY=0;entryDx=0;entryDy=0;" edge="1" parent="1" target="PtxPuc-Sb4we9bxzt_w5-23">
          <mxGeometry width="50" height="50" relative="1" as="geometry">
            <mxPoint x="350.41999999999996" y="230" as="sourcePoint" />
            <mxPoint x="350" y="280" as="targetPoint" />
          </mxGeometry>
        </mxCell>
        <mxCell id="PtxPuc-Sb4we9bxzt_w5-31" value="" style="endArrow=classic;html=1;rounded=0;entryX=0.5;entryY=0;entryDx=0;entryDy=0;" edge="1" parent="1">
          <mxGeometry width="50" height="50" relative="1" as="geometry">
            <mxPoint x="550" y="310" as="sourcePoint" />
            <mxPoint x="550.42" y="399.9999999999999" as="targetPoint" />
          </mxGeometry>
        </mxCell>
        <mxCell id="PtxPuc-Sb4we9bxzt_w5-32" value="" style="endArrow=classic;html=1;rounded=0;entryX=0.5;entryY=0;entryDx=0;entryDy=0;exitX=0.5;exitY=1;exitDx=0;exitDy=0;" edge="1" parent="1" source="PtxPuc-Sb4we9bxzt_w5-28">
          <mxGeometry width="50" height="50" relative="1" as="geometry">
            <mxPoint x="550" y="440" as="sourcePoint" />
            <mxPoint x="550" y="500" as="targetPoint" />
          </mxGeometry>
        </mxCell>
        <mxCell id="PtxPuc-Sb4we9bxzt_w5-34" value="" style="endArrow=classic;html=1;rounded=0;entryX=0.5;entryY=0;entryDx=0;entryDy=0;" edge="1" parent="1">
          <mxGeometry width="50" height="50" relative="1" as="geometry">
            <mxPoint x="350" y="320" as="sourcePoint" />
            <mxPoint x="350.41999999999996" y="400" as="targetPoint" />
          </mxGeometry>
        </mxCell>
        <mxCell id="PtxPuc-Sb4we9bxzt_w5-35" value="" style="endArrow=classic;html=1;rounded=0;" edge="1" parent="1">
          <mxGeometry width="50" height="50" relative="1" as="geometry">
            <mxPoint x="550" y="230" as="sourcePoint" />
            <mxPoint x="549.58" y="280" as="targetPoint" />
          </mxGeometry>
        </mxCell>
        <mxCell id="PtxPuc-Sb4we9bxzt_w5-36" value="" style="endArrow=classic;html=1;rounded=0;entryX=0.5;entryY=0;entryDx=0;entryDy=0;exitX=0.5;exitY=1;exitDx=0;exitDy=0;" edge="1" parent="1">
          <mxGeometry width="50" height="50" relative="1" as="geometry">
            <mxPoint x="350" y="430" as="sourcePoint" />
            <mxPoint x="350" y="500" as="targetPoint" />
          </mxGeometry>
        </mxCell>
      </root>
    </mxGraphModel>
  </diagram>
</mxfile>
